<svg width="293" height="49" viewBox="0 0 293 49" fill="none" xmlns="http://www.w3.org/2000/svg">
<path d="M104.981 19.7093C106.82 19.7093 108.078 20.279 109.468 21.7425L109.799 22.0909L114.935 19.2669L114.553 18.7033C112.465 15.6308 109.053 13.9401 104.945 13.9401C98.133 13.9401 93.188 18.5882 93.188 24.9907C93.188 31.3296 98.0997 35.9323 104.872 35.9323C108.905 35.9323 112.08 34.4657 114.311 31.569L114.711 31.0478L109.796 27.6784L109.435 28.1268C108.35 29.4752 106.778 30.16 104.76 30.16C101.557 30.16 99.4057 28.1117 99.4057 25.0665C99.4057 21.8606 101.645 19.7093 104.981 19.7093Z" fill="white"/>
<path d="M132.646 15.852C130.994 14.5642 129.158 13.937 127.068 13.937C121.422 13.937 117.168 18.673 117.168 24.9513C117.168 31.1084 121.565 35.9292 127.18 35.9292C129.273 35.9292 131.007 35.3505 132.646 34.0809V35.4111H138.824V14.4582H132.646V15.852ZM128.07 30.1569C125.356 30.1569 123.383 27.9511 123.383 24.9119C123.383 21.8455 125.31 19.7063 128.07 19.7063C130.894 19.7063 132.87 21.8334 132.87 24.8755C132.87 27.9874 130.897 30.1569 128.07 30.1569Z" fill="white"/>
<path d="M149.517 7.18303H143.339V14.4582H140.815V19.9305H143.339V35.4081H149.517V19.9305H152.45V14.4582H149.517V7.18303Z" fill="white"/>
<path d="M164.931 19.7093C166.77 19.7093 168.028 20.279 169.418 21.7425L169.749 22.0909L174.888 19.2669L174.503 18.7033C172.415 15.6308 169.003 13.9401 164.894 13.9401C158.083 13.9401 153.138 18.5882 153.138 24.9907C153.138 31.3296 158.05 35.9323 164.819 35.9323C168.852 35.9323 172.027 34.4657 174.257 31.569L174.657 31.0478L169.746 27.6784L169.385 28.1268C168.3 29.4752 166.728 30.16 164.71 30.16C161.507 30.16 159.356 28.1117 159.356 25.0665C159.352 21.8606 161.595 19.7093 164.931 19.7093Z" fill="white"/>
<path d="M189.432 13.9373C187.644 13.9373 185.966 14.5312 184.226 15.7947V6.84998H178.048V35.4114H184.226V26.006C184.223 24.2092 184.217 22.6578 185.057 21.3519C185.732 20.2913 186.732 19.7096 187.875 19.7096C189.987 19.7096 190.632 21.0549 190.632 25.4728V35.4114H196.81V21.7609C196.807 17.0098 193.911 13.9373 189.432 13.9373Z" fill="white"/>
<path d="M212.221 13.937C210.133 13.937 208.297 14.5642 206.643 15.852V14.4582H200.464V42.6105H206.643V34.0657C208.309 35.3474 210.039 35.9292 212.109 35.9292C217.745 35.9292 222.156 31.1084 222.156 24.9513C222.159 18.673 217.887 13.937 212.221 13.937ZM211.221 19.7093C214.003 19.7093 215.945 21.8515 215.945 24.9149C215.945 27.9541 213.957 30.16 211.221 30.16C208.397 30.16 206.421 27.9874 206.421 24.8786C206.421 21.7849 208.351 19.7093 211.221 19.7093Z" fill="white"/>
<path d="M235.049 13.937C229.08 13.937 224.22 18.879 224.22 24.9513C224.22 31.1084 228.992 35.9292 235.086 35.9292C241.282 35.9292 246.136 31.0902 246.136 24.9149C246.139 18.8609 241.164 13.937 235.049 13.937ZM235.125 30.0085C232.322 30.0085 230.438 27.9601 230.438 24.9149C230.438 21.9849 232.407 19.8578 235.125 19.8578C237.995 19.8578 239.925 21.9061 239.925 24.9513C239.922 27.9299 237.949 30.0085 235.125 30.0085Z" fill="white"/>
<path d="M254.787 14.4583H248.609V35.4112H254.787V14.4583Z" fill="white"/>
<path d="M269.571 13.937C267.762 13.937 266.156 14.5036 264.365 15.8035V14.4552H258.187V35.408H264.365V26.1845C264.365 24.315 264.362 22.6969 265.232 21.3122C265.889 20.2759 266.892 19.7063 268.047 19.7063C270.183 19.7063 270.768 20.9455 270.768 25.4694V35.408H276.946V21.3122C276.949 17.0398 273.846 13.937 269.571 13.937Z" fill="white"/>
<path d="M287.418 14.4582V7.18303H281.24V14.4582H278.716V19.9305H281.24V35.4081H287.418V19.9305H290.351V14.4582H287.418Z" fill="white"/>
<path d="M251.682 3.98914C249.785 3.98914 248.243 5.47084 248.243 7.29191C248.243 9.31902 249.785 10.9674 251.682 10.9674C253.578 10.9674 255.121 9.42508 255.121 7.52826C255.121 5.57689 253.578 3.98914 251.682 3.98914Z" fill="white"/>
<path d="M19.2906 45.9131C18.7392 46.4646 18.7392 47.3615 19.2906 47.9129C19.5573 48.1796 19.9118 48.3281 20.2906 48.3281C20.6693 48.3281 21.0238 48.1796 21.2905 47.9129C21.5571 47.6463 21.7056 47.2918 21.7056 46.913C21.7056 46.5343 21.5571 46.1797 21.2905 45.9131C20.7572 45.3798 19.8239 45.3798 19.2906 45.9131Z" fill="white"/>
<path d="M11.9037 43.0738C11.2977 43.6799 11.2977 44.6616 11.9037 45.2676C12.1976 45.5615 12.5855 45.7221 13.0006 45.7221C13.4157 45.7221 13.8036 45.5615 14.0975 45.2676C14.3914 44.9737 14.552 44.5858 14.552 44.1707C14.552 43.7556 14.3914 43.3678 14.0975 43.0738C13.5097 42.489 12.4885 42.489 11.9037 43.0738Z" fill="white"/>
<path d="M5.92844 38.0743C5.27698 38.7258 5.27698 39.7833 5.92844 40.4317C6.24357 40.7468 6.66172 40.9196 7.10714 40.9196C7.55256 40.9196 7.9707 40.7468 8.28583 40.4317C8.60096 40.1166 8.77367 39.6984 8.77367 39.253C8.77367 38.8076 8.60096 38.3894 8.28583 38.0743C7.65558 37.4471 6.55869 37.4471 5.92844 38.0743Z" fill="white"/>
<path d="M2.05232 31.4113C1.37964 32.084 1.37964 33.1779 2.05232 33.8536C2.37653 34.1808 2.81286 34.3596 3.27343 34.3596C3.734 34.3596 4.1673 34.1808 4.49455 33.8536C4.8218 33.5263 5.00057 33.093 5.00057 32.6325C5.00057 32.1719 4.8218 31.7386 4.49455 31.4113C3.84309 30.7568 2.70378 30.7568 2.05232 31.4113Z" fill="white"/>
<path d="M0.540866 23.4575C-0.180289 24.1787 -0.180289 25.3513 0.540866 26.0725C0.889324 26.421 1.35293 26.6149 1.84683 26.6149C2.34073 26.6149 2.80432 26.421 3.15278 26.0725C3.50124 25.724 3.69516 25.2604 3.69516 24.7665C3.69516 24.2726 3.50124 23.809 3.15278 23.4606C2.45587 22.7576 1.23778 22.7576 0.540866 23.4575Z" fill="white"/>
<path d="M8.27333 23.6696C7.67035 24.2725 7.67035 25.2543 8.27333 25.8603C8.56422 26.1542 8.9551 26.3148 9.36718 26.3148C9.77927 26.3148 10.1702 26.1542 10.461 25.8603C10.7519 25.5694 10.9155 25.1785 10.9155 24.7664C10.9155 24.3543 10.755 23.9635 10.461 23.6726C9.87927 23.0848 8.85813 23.0847 8.27333 23.6696Z" fill="white"/>
<path d="M10.231 16.0338C9.57343 16.6913 9.57343 17.764 10.231 18.4245C10.5491 18.7427 10.9733 18.9215 11.4248 18.9215C11.8763 18.9215 12.3005 18.7457 12.6186 18.4245C12.9368 18.1064 13.1125 17.6822 13.1125 17.2307C13.1125 16.7792 12.9368 16.355 12.6156 16.0368C11.9823 15.3975 10.8673 15.3975 10.231 16.0338Z" fill="white"/>
<path d="M15.4426 10.6218C14.7306 11.3339 14.7306 12.4914 15.4426 13.2065C15.7881 13.5519 16.2456 13.7428 16.7335 13.7428C17.2213 13.7428 17.6788 13.5519 18.0243 13.2065C18.3697 12.861 18.5606 12.4035 18.5606 11.9157C18.5606 11.4278 18.3697 10.9703 18.0243 10.6248C17.3364 9.93399 16.1305 9.934 15.4426 10.6218Z" fill="white"/>
<path d="M22.9177 8.47378C22.1633 9.22827 22.1633 10.4585 22.9177 11.213C23.2844 11.5796 23.7692 11.7826 24.2873 11.7826C24.8055 11.7826 25.2903 11.5796 25.6569 11.213C26.0236 10.8463 26.2235 10.3615 26.2235 9.84338C26.2235 9.32523 26.0205 8.84042 25.6539 8.47378C24.9267 7.74051 23.648 7.74051 22.9177 8.47378Z" fill="white"/>
<path d="M30.4202 10.3523C29.6112 11.1613 29.6112 12.4763 30.4202 13.2854C30.8111 13.6762 31.3323 13.8944 31.8868 13.8944C32.4413 13.8944 32.9624 13.6793 33.3533 13.2854C33.7442 12.8945 33.9623 12.3733 33.9623 11.8188C33.9623 11.2643 33.7472 10.7431 33.3533 10.3523C32.5685 9.56748 31.202 9.56748 30.4202 10.3523Z" fill="white"/>
<path d="M35.7682 15.7612C34.9591 16.5702 34.9591 17.8852 35.7682 18.6943C36.1591 19.0851 36.6802 19.3033 37.2347 19.3033C37.7892 19.3033 38.3104 19.0882 38.7013 18.6943C39.0922 18.3034 39.3103 17.7822 39.3103 17.2277C39.3103 16.6732 39.0952 16.152 38.7013 15.7612C37.9195 14.9764 36.5499 14.9764 35.7682 15.7612Z" fill="white"/>
<path d="M15.8916 23.83C15.3765 24.3451 15.3765 25.1845 15.8916 25.6996C16.1401 25.9511 16.4734 26.0874 16.8279 26.0874C17.1825 26.0874 17.5127 25.9511 17.7642 25.6996C18.0127 25.4511 18.1521 25.1178 18.1521 24.7633C18.1521 24.4088 18.0157 24.0785 17.7642 23.827C17.2612 23.3301 16.3886 23.3301 15.8916 23.83Z" fill="white"/>
<path d="M10.3948 31.3416C9.82819 31.9083 9.82819 32.8294 10.3948 33.396C10.6675 33.6718 11.0342 33.8233 11.422 33.8233C11.8098 33.8233 12.1765 33.6718 12.4492 33.396C12.7249 33.1203 12.8764 32.7567 12.8764 32.3688C12.8764 31.981 12.7249 31.6144 12.4492 31.3416C11.9007 30.7932 10.9433 30.7932 10.3948 31.3416Z" fill="white"/>
<path d="M15.8878 36.7958C15.3697 37.3139 15.3697 38.1532 15.8878 38.6714C16.1393 38.9229 16.4726 39.0592 16.8241 39.0592C17.1786 39.0592 17.5119 38.9198 17.7604 38.6714C18.0119 38.4199 18.1483 38.0866 18.1483 37.7351C18.1483 37.3836 18.0089 37.0473 17.7604 36.7988C17.2604 36.2928 16.3878 36.2928 15.8878 36.7958Z" fill="white"/>
<path d="M23.4449 38.8018C22.9419 39.3048 22.9419 40.1229 23.4449 40.6259C23.6873 40.8714 24.0115 41.0047 24.3569 41.0047C24.7024 41.0047 25.0266 40.8714 25.269 40.6259C25.5114 40.3835 25.6478 40.0593 25.6478 39.7139C25.6478 39.3684 25.5144 39.0442 25.269 38.8018C24.7842 38.314 23.9327 38.314 23.4449 38.8018Z" fill="white"/>
<path d="M19.4876 17.2974C18.9179 17.867 18.9179 18.7942 19.4876 19.3639C19.7633 19.6396 20.1299 19.7911 20.5208 19.7911C20.9117 19.7911 21.2783 19.6396 21.5541 19.3639C21.8298 19.0881 21.9813 18.7215 21.9813 18.3306C21.9813 17.9397 21.8298 17.5731 21.5541 17.2974C21.0026 16.7459 20.039 16.7459 19.4876 17.2974Z" fill="white"/>
<path d="M26.9934 17.2335C26.3934 17.8335 26.3934 18.8061 26.9934 19.4061C27.2843 19.697 27.6691 19.8576 28.0782 19.8576C28.4872 19.8576 28.8751 19.697 29.1629 19.4061C29.4538 19.1152 29.6114 18.7304 29.6114 18.3213C29.6114 17.9123 29.4508 17.5244 29.1599 17.2366C28.5842 16.6548 27.5721 16.6548 26.9934 17.2335Z" fill="white"/>
<path d="M37.9408 23.4393C37.2106 24.1695 37.2106 25.3573 37.9408 26.0875C38.2953 26.4421 38.765 26.636 39.2649 26.636C39.7649 26.636 40.2346 26.4421 40.5891 26.0875C40.9436 25.733 41.1375 25.2634 41.1375 24.7634C41.1375 24.2634 40.9436 23.7938 40.5891 23.4393C39.8801 22.7333 38.6468 22.7333 37.9408 23.4393Z" fill="white"/>
<path d="M30.866 23.4393C30.1357 24.1695 30.1357 25.3573 30.866 26.0875C31.2205 26.4421 31.6901 26.636 32.1901 26.636C32.6901 26.636 33.1597 26.4421 33.5142 26.0875C33.8688 25.733 34.0627 25.2634 34.0627 24.7634C34.0627 24.2634 33.8688 23.7938 33.5142 23.4393C32.8082 22.7333 31.572 22.7333 30.866 23.4393Z" fill="white"/>
<path d="M19.6816 30.4446C19.2332 30.893 19.2332 31.6263 19.6816 32.0748C19.8998 32.2929 20.1877 32.4141 20.4967 32.4141C20.8058 32.4141 21.0937 32.2929 21.3118 32.0748C21.53 31.8566 21.6482 31.5687 21.6482 31.2597C21.6482 30.9506 21.527 30.6627 21.3088 30.4446C20.8785 30.0113 20.118 30.0113 19.6816 30.4446Z" fill="white"/>
<path d="M1.87386 15.549C1.10725 16.3157 1.10725 17.564 1.87386 18.3306C2.24353 18.7033 2.74046 18.9064 3.26466 18.9064C3.78886 18.9064 4.28579 18.7003 4.65546 18.3306C5.02816 17.9579 5.23117 17.464 5.23117 16.9398C5.23117 16.4156 5.02513 15.9187 4.65546 15.549C3.91309 14.8037 2.6132 14.8037 1.87386 15.549Z" fill="white"/>
<path d="M5.68867 8.85542C4.86753 9.67657 4.86753 11.0128 5.68867 11.834C6.08561 12.2309 6.61587 12.4521 7.17643 12.4521C7.73699 12.4521 8.26726 12.2339 8.6642 11.834C9.06113 11.437 9.28233 10.9068 9.28233 10.3462C9.28233 9.78565 9.06416 9.25539 8.6642 8.85845C7.87032 8.06154 6.48255 8.06154 5.68867 8.85542Z" fill="white"/>
<path d="M11.4705 3.86486C10.619 4.71631 10.619 6.10105 11.4705 6.9525C11.8825 7.36459 12.431 7.59184 13.0128 7.59184C13.5945 7.59184 14.143 7.36459 14.5551 6.9525C14.9672 6.54041 15.1944 5.99197 15.1944 5.4102C15.1944 4.82842 14.9672 4.27998 14.5551 3.86789C13.7309 3.04069 12.2916 3.04069 11.4705 3.86486Z" fill="white"/>
<path d="M18.6637 1.06513C17.7638 1.96505 17.7638 3.42857 18.6637 4.3285C19.1 4.76483 19.6788 5.00421 20.2939 5.00421C20.909 5.00421 21.4907 4.76483 21.924 4.3285C22.3604 3.89217 22.5997 3.31343 22.5997 2.69833C22.5997 2.08323 22.3604 1.50145 21.924 1.06815C21.0544 0.195495 19.5333 0.195497 18.6637 1.06513Z" fill="white"/>
<path d="M26.6598 1.00768C25.7265 1.94094 25.7265 3.45597 26.6598 4.3862C27.1113 4.83768 27.7112 5.08614 28.3506 5.08614C28.9899 5.08614 29.5899 4.83768 30.0413 4.3862C30.4928 3.93472 30.7413 3.33477 30.7413 2.69542C30.7413 2.05608 30.4928 1.45613 30.0413 1.00465C29.1354 0.104717 27.5597 0.104718 26.6598 1.00768Z" fill="white"/>
<path d="M33.8199 3.63181C32.8261 4.62567 32.8261 6.24372 33.8199 7.23758C34.3017 7.71936 34.941 7.98601 35.6228 7.98601C36.3046 7.98601 36.9439 7.71936 37.4257 7.23758C37.9075 6.7558 38.1741 6.11646 38.1741 5.4347C38.1741 4.75293 37.9075 4.11359 37.4257 3.63181C36.4621 2.66825 34.7805 2.66825 33.8199 3.63181Z" fill="white"/>
<path d="M39.6165 8.4161C38.5833 9.44935 38.5833 11.131 39.6165 12.1643C40.1165 12.6673 40.7831 12.943 41.4921 12.943C42.2011 12.943 42.8647 12.6673 43.3677 12.1643C43.8677 11.6643 44.1434 10.9977 44.1434 10.2887C44.1434 9.57964 43.8677 8.91606 43.3647 8.41307C42.3648 7.41618 40.6164 7.41618 39.6165 8.4161Z" fill="white"/>
<path d="M43.4347 15.0401C42.353 16.1219 42.353 17.8823 43.4347 18.9671C43.9589 19.4913 44.6559 19.7822 45.3982 19.7822C46.1406 19.7822 46.8375 19.4943 47.3617 18.9671C47.8859 18.4429 48.1738 17.746 48.1738 17.0036C48.1738 16.2612 47.8859 15.5643 47.3587 15.0401C46.3133 13.9917 44.4801 13.9917 43.4347 15.0401Z" fill="white"/>
<path d="M44.7371 22.7031C43.6039 23.8363 43.6039 25.6816 44.7371 26.8149C45.2856 27.3663 46.0158 27.6663 46.7915 27.6663C47.5672 27.6663 48.2974 27.3633 48.8459 26.8149C49.3943 26.2664 49.6973 25.5362 49.6973 24.7605C49.6973 23.9848 49.3943 23.2545 48.8459 22.7061C47.752 21.6032 45.834 21.6032 44.7371 22.7031Z" fill="white"/>
<path d="M27.3813 45.8587C26.8298 46.4102 26.8298 47.3071 27.3813 47.8586C27.6479 48.1252 28.0024 48.2737 28.3812 48.2737C28.7599 48.2737 29.1145 48.1252 29.3811 47.8586C29.6477 47.5919 29.7962 47.2374 29.7962 46.8586C29.7962 46.4799 29.6477 46.1254 29.3811 45.8587C28.8478 45.3254 27.9146 45.3254 27.3813 45.8587Z" fill="white"/>
<path d="M52.0036 2.74684C52.555 2.19536 52.555 1.29847 52.0036 0.746995C51.7369 0.480349 51.3824 0.331875 51.0037 0.331875C50.6249 0.331875 50.2704 0.480349 50.0037 0.746995C49.7371 1.01364 49.5886 1.36816 49.5886 1.74692C49.5886 2.12567 49.7371 2.48019 50.0037 2.74684C50.537 3.28013 51.4703 3.28013 52.0036 2.74684Z" fill="white"/>
<path d="M59.3938 5.58593C59.9998 4.97992 59.9998 3.99818 59.3938 3.39217C59.0998 3.09825 58.712 2.93766 58.2969 2.93766C57.8818 2.93766 57.4939 3.09825 57.2 3.39217C56.9061 3.68608 56.7455 4.07393 56.7455 4.48905C56.7455 4.90417 56.9061 5.29202 57.2 5.58593C57.7848 6.17073 58.809 6.17073 59.3938 5.58593Z" fill="white"/>
<path d="M65.0418 10.1219C65.6933 9.47041 65.6933 8.41291 65.0418 7.76448C64.7267 7.44935 64.3085 7.27664 63.8631 7.27664C63.4177 7.27664 62.9996 7.44935 62.6844 7.76448C62.3693 8.07961 62.1966 8.49776 62.1966 8.94318C62.1966 9.38859 62.3693 9.80674 62.6844 10.1219C63.3147 10.7521 64.4146 10.7521 65.0418 10.1219Z" fill="white"/>
<path d="M69.7714 18.4667C70.4441 17.794 70.4441 16.7002 69.7714 16.0245C69.4472 15.6972 69.0108 15.5184 68.5503 15.5184C68.0897 15.5184 67.6564 15.6972 67.3292 16.0245C67.0019 16.3517 66.8231 16.785 66.8231 17.2456C66.8231 17.7061 67.0019 18.1394 67.3292 18.4667C67.9837 19.1182 69.1199 19.1182 69.7714 18.4667Z" fill="white"/>
<path d="M70.7532 26.0874C71.4744 25.3662 71.4744 24.1936 70.7532 23.4725C70.4048 23.124 69.9412 22.9301 69.4473 22.9301C68.9534 22.9301 68.4898 23.124 68.1413 23.4725C67.7929 23.8209 67.5989 24.2845 67.5989 24.7784C67.5989 25.2723 67.7929 25.7359 68.1413 26.0844C68.8382 26.7873 70.0563 26.7873 70.7532 26.0874Z" fill="white"/>
<path d="M63.0205 25.8753C63.6235 25.2723 63.6235 24.2906 63.0205 23.6846C62.7296 23.3907 62.3388 23.2301 61.9267 23.2301C61.5146 23.2301 61.1237 23.3907 60.8328 23.6846C60.5419 23.9755 60.3783 24.3664 60.3783 24.7784C60.3783 25.1905 60.5389 25.5814 60.8328 25.8723C61.4176 26.4601 62.4357 26.4601 63.0205 25.8753Z" fill="white"/>
<path d="M61.0661 32.6263C61.7237 31.9688 61.7237 30.8962 61.0661 30.2356C60.748 29.9174 60.3238 29.7387 59.8723 29.7387C59.4208 29.7387 58.9966 29.9144 58.6785 30.2356C58.3603 30.5538 58.1846 30.978 58.1846 31.4294C58.1846 31.8809 58.3603 32.3051 58.6815 32.6233C59.3148 33.2626 60.4298 33.2626 61.0661 32.6263Z" fill="white"/>
<path d="M55.8547 38.0377C56.5667 37.3256 56.5667 36.1681 55.8547 35.453C55.5092 35.1076 55.0517 34.9167 54.5639 34.9167C54.076 34.9167 53.6185 35.1076 53.2731 35.453C52.9276 35.7985 52.7367 36.256 52.7367 36.7438C52.7367 37.2317 52.9276 37.6892 53.2731 38.0347C53.9609 38.7285 55.1638 38.7285 55.8547 38.0377Z" fill="white"/>
<path d="M48.3766 40.1891C49.1311 39.4347 49.1311 38.2045 48.3766 37.45C48.01 37.0833 47.5252 36.8803 47.007 36.8803C46.4889 36.8803 46.0041 37.0833 45.6374 37.45C45.2708 37.8166 45.0708 38.3014 45.0708 38.8195C45.0708 39.3377 45.2738 39.8225 45.6405 40.1891C46.3707 40.9194 47.6464 40.9194 48.3766 40.1891Z" fill="white"/>
<path d="M40.8767 38.3075C41.6857 37.4984 41.6857 36.1834 40.8767 35.3744C40.4858 34.9835 39.9646 34.7653 39.4101 34.7653C38.8556 34.7653 38.3345 34.9804 37.9436 35.3744C37.5527 35.7652 37.3345 36.2864 37.3345 36.8409C37.3345 37.3954 37.5497 37.9166 37.9436 38.3075C38.7254 39.0922 40.0949 39.0922 40.8767 38.3075Z" fill="white"/>
<path d="M35.5301 33.6596C36.3392 32.8505 36.3392 31.5355 35.5301 30.7265C35.1393 30.3356 34.6181 30.1174 34.0636 30.1174C33.5091 30.1174 32.9879 30.3326 32.597 30.7265C32.2062 31.1173 31.988 31.6385 31.988 32.193C31.988 32.7475 32.2031 33.2687 32.597 33.6596C33.3818 34.4443 34.7484 34.4443 35.5301 33.6596Z" fill="white"/>
<path d="M55.4059 25.7146C55.921 25.1995 55.921 24.3601 55.4059 23.845C55.1575 23.5935 54.8241 23.4572 54.4696 23.4572C54.1151 23.4572 53.7848 23.5935 53.5333 23.845C53.2849 24.0935 53.1455 24.4268 53.1455 24.7813C53.1455 25.1358 53.2818 25.4661 53.5333 25.7176C54.0363 26.2145 54.906 26.2145 55.4059 25.7146Z" fill="white"/>
<path d="M60.9024 17.3185C61.469 16.7519 61.469 15.8307 60.9024 15.2641C60.6297 14.9884 60.2631 14.8369 59.8752 14.8369C59.4874 14.8369 59.1207 14.9884 58.848 15.2641C58.5723 15.5399 58.4208 15.9035 58.4208 16.2913C58.4208 16.6792 58.5723 17.0458 58.848 17.3185C59.3965 17.87 60.354 17.87 60.9024 17.3185Z" fill="white"/>
<path d="M55.4092 11.8672C55.9273 11.3491 55.9273 10.5097 55.4092 9.9916C55.1577 9.7401 54.8244 9.60375 54.4729 9.60375C54.1184 9.60375 53.7851 9.74313 53.5366 9.9916C53.2851 10.2431 53.1488 10.5764 53.1488 10.9279C53.1488 11.2824 53.2882 11.6157 53.5366 11.8642C54.0335 12.3672 54.9092 12.3672 55.4092 11.8672Z" fill="white"/>
<path d="M47.8493 9.85848C48.3523 9.35549 48.3523 8.53737 47.8493 8.03438C47.6069 7.78895 47.2827 7.65562 46.9372 7.65562C46.5918 7.65562 46.2676 7.78895 46.0252 8.03438C45.7828 8.27679 45.6464 8.601 45.6464 8.94643C45.6464 9.29186 45.7797 9.61608 46.0252 9.85848C46.513 10.3463 47.3645 10.3463 47.8493 9.85848Z" fill="white"/>
<path d="M51.8067 31.3626C52.3764 30.793 52.3764 29.8658 51.8067 29.2961C51.531 29.0204 51.1644 28.8689 50.7735 28.8689C50.3826 28.8689 50.016 29.0204 49.7402 29.2961C49.4645 29.5719 49.313 29.9385 49.313 30.3294C49.313 30.7203 49.4645 31.0869 49.7402 31.3626C50.2947 31.9141 51.2583 31.9141 51.8067 31.3626Z" fill="white"/>
<path d="M44.3039 31.4264C44.9039 30.8264 44.9039 29.8538 44.3039 29.2538C44.013 28.9629 43.6282 28.8023 43.2192 28.8023C42.8101 28.8023 42.4223 28.9629 42.1344 29.2538C41.8435 29.5447 41.686 29.9295 41.686 30.3386C41.686 30.7476 41.8466 31.1355 42.1374 31.4234C42.7132 32.0051 43.7252 32.0051 44.3039 31.4264Z" fill="white"/>
<path d="M51.6123 18.2152C52.0608 17.7668 52.0608 17.0335 51.6123 16.5851C51.3941 16.3669 51.1063 16.2457 50.7972 16.2457C50.4882 16.2457 50.2003 16.3669 49.9821 16.5851C49.764 16.8032 49.6458 17.0911 49.6458 17.4002C49.6458 17.7092 49.767 17.9971 49.9852 18.2152C50.4185 18.6516 51.179 18.6516 51.6123 18.2152Z" fill="white"/>
<path d="M69.423 33.1107C70.1896 32.3441 70.1896 31.0958 69.423 30.3292C69.0533 29.9565 68.5564 29.7534 68.0322 29.7534C67.5079 29.7534 67.011 29.9595 66.6413 30.3292C66.2687 30.7018 66.0656 31.1957 66.0656 31.7199C66.0656 32.2442 66.2717 32.7411 66.6413 33.1107C67.3837 33.8561 68.6806 33.8561 69.423 33.1107Z" fill="white"/>
<path d="M65.6088 39.8043C66.43 38.9832 66.43 37.6469 65.6088 36.8258C65.2119 36.4289 64.6816 36.2077 64.1211 36.2077C63.5605 36.2077 63.0302 36.4258 62.6333 36.8258C62.2364 37.2227 62.0152 37.753 62.0152 38.3135C62.0152 38.8741 62.2333 39.4044 62.6333 39.8013C63.4272 40.5982 64.8149 40.5982 65.6088 39.8043Z" fill="white"/>
<path d="M59.8268 44.7951C60.6782 43.9437 60.6782 42.5589 59.8268 41.7075C59.4147 41.2954 58.8663 41.0681 58.2845 41.0681C57.7027 41.0681 57.1543 41.2954 56.7422 41.7075C56.3301 42.1196 56.1028 42.668 56.1028 43.2498C56.1028 43.8315 56.3301 44.38 56.7422 44.7921C57.5633 45.6223 59.0026 45.6223 59.8268 44.7951Z" fill="white"/>
<path d="M52.6308 47.5947C53.5307 46.6948 53.5307 45.2313 52.6308 44.3313C52.1944 43.895 51.6157 43.6556 51.0006 43.6556C50.3855 43.6556 49.8037 43.895 49.3704 44.3313C48.9341 44.7677 48.6947 45.3464 48.6947 45.9615C48.6947 46.5766 48.9341 47.1584 49.3704 47.5917C50.24 48.4643 51.7611 48.4643 52.6308 47.5947Z" fill="white"/>
<path d="M44.6373 47.6523C45.5706 46.719 45.5706 45.204 44.6373 44.2738C44.1858 43.8223 43.5859 43.5738 42.9465 43.5738C42.3072 43.5738 41.7072 43.8223 41.2557 44.2738C40.8043 44.7253 40.5558 45.3252 40.5558 45.9645C40.5558 46.6039 40.8043 47.2038 41.2557 47.6553C42.1587 48.5553 43.7343 48.5553 44.6373 47.6523Z" fill="white"/>
<path d="M37.7419 45.3888C38.7357 44.3949 38.7357 42.7769 37.7419 41.783C37.2601 41.3013 36.6208 41.0346 35.939 41.0346C35.2572 41.0346 34.6179 41.3013 34.1361 41.783C33.6543 42.2648 33.3877 42.9042 33.3877 43.5859C33.3877 44.2677 33.6543 44.907 34.1361 45.3888C35.1027 46.3524 36.7813 46.3524 37.7419 45.3888Z" fill="white"/>
<path d="M31.9483 41.4253C32.9816 40.392 32.9816 38.7103 31.9483 37.6771C31.4484 37.1741 30.7818 36.8984 30.0727 36.8984C29.3637 36.8984 28.7001 37.1741 28.1971 37.6771C27.6972 38.1771 27.4214 38.8437 27.4214 39.5527C27.4214 40.2617 27.6972 40.9253 28.2002 41.4283C29.2001 42.4282 30.9484 42.4282 31.9483 41.4253Z" fill="white"/>
<path d="M27.8639 34.3928C28.9456 33.3111 28.9456 31.5506 27.8639 30.4659C27.3397 29.9417 26.6428 29.6508 25.9004 29.6508C25.158 29.6508 24.4611 29.9386 23.9369 30.4659C23.4127 30.9901 23.1249 31.687 23.1249 32.4293C23.1249 33.1717 23.4127 33.8686 23.94 34.3928C24.9853 35.4412 26.8155 35.4412 27.8639 34.3928Z" fill="white"/>
<path d="M26.5574 26.8417C27.6907 25.7084 27.6907 23.8631 26.5574 22.7299C26.009 22.1784 25.2787 21.8784 24.503 21.8784C23.7273 21.8784 22.9971 22.1814 22.4487 22.7299C21.9002 23.2783 21.5972 24.0086 21.5972 24.7843C21.5972 25.56 21.9002 26.2902 22.4487 26.8386C23.5455 27.9416 25.4605 27.9416 26.5574 26.8417Z" fill="white"/>
<path d="M43.9162 2.80121C44.4677 2.24974 44.4677 1.35284 43.9162 0.80137C43.6496 0.534724 43.2951 0.38625 42.9163 0.38625C42.5376 0.38625 42.183 0.534724 41.9164 0.80137C41.6497 1.06802 41.5013 1.42253 41.5013 1.80129C41.5013 2.18005 41.6497 2.53457 41.9164 2.80121C42.4497 3.33753 43.3829 3.33753 43.9162 2.80121Z" fill="white"/>
<path d="M289.197 33.6385C289.197 33.3991 289.243 33.1749 289.334 32.9628C289.424 32.7537 289.549 32.5689 289.706 32.4113C289.864 32.2538 290.049 32.1295 290.258 32.0386C290.467 31.9477 290.694 31.9023 290.933 31.9023C291.173 31.9023 291.397 31.9477 291.609 32.0386C291.818 32.1295 292.003 32.2538 292.161 32.4113C292.318 32.5689 292.442 32.7537 292.533 32.9628C292.624 33.1719 292.67 33.3991 292.67 33.6385C292.67 33.8779 292.624 34.1021 292.533 34.3142C292.442 34.5233 292.318 34.7081 292.161 34.8657C292.003 35.0232 291.818 35.1475 291.609 35.2384C291.4 35.3293 291.173 35.3747 290.933 35.3747C290.694 35.3747 290.47 35.3293 290.258 35.2384C290.049 35.1475 289.864 35.0232 289.706 34.8657C289.549 34.7081 289.424 34.5233 289.334 34.3142C289.243 34.1021 289.197 33.8779 289.197 33.6385ZM289.673 33.6385C289.673 33.8203 289.706 33.99 289.77 34.1506C289.837 34.3112 289.924 34.4505 290.04 34.5687C290.155 34.6869 290.288 34.7808 290.443 34.8505C290.594 34.9202 290.758 34.9566 290.933 34.9566C291.109 34.9566 291.27 34.9202 291.424 34.8505C291.576 34.7808 291.712 34.6869 291.827 34.5687C291.942 34.4505 292.033 34.3112 292.097 34.1506C292.164 33.99 292.194 33.8203 292.194 33.6385C292.194 33.4567 292.161 33.287 292.097 33.1264C292.03 32.9658 291.942 32.8264 291.827 32.7083C291.712 32.5901 291.579 32.4962 291.424 32.4265C291.273 32.3568 291.109 32.3204 290.933 32.3204C290.758 32.3204 290.594 32.3568 290.443 32.4265C290.291 32.4962 290.155 32.5901 290.04 32.7083C289.924 32.8264 289.834 32.9658 289.77 33.1264C289.706 33.287 289.673 33.4567 289.673 33.6385ZM290.267 32.7083H290.912C290.961 32.7083 291.03 32.7113 291.118 32.7174C291.206 32.7234 291.291 32.7446 291.376 32.784C291.461 32.8204 291.533 32.881 291.594 32.9598C291.658 33.0385 291.688 33.1507 291.688 33.2991C291.688 33.3931 291.676 33.4688 291.652 33.5294C291.627 33.59 291.594 33.6385 291.555 33.6779C291.515 33.7173 291.47 33.7476 291.418 33.7658C291.367 33.787 291.315 33.7991 291.261 33.8051L291.727 34.5293H291.236L290.821 33.8294H290.743V34.5293H290.267V32.7083ZM290.74 33.4627H290.93C290.958 33.4627 290.988 33.4597 291.021 33.4567C291.055 33.4537 291.085 33.4446 291.112 33.4324C291.139 33.4203 291.164 33.3991 291.182 33.3749C291.2 33.3476 291.209 33.3112 291.209 33.2658C291.209 33.2203 291.2 33.184 291.182 33.1567C291.164 33.1294 291.139 33.1113 291.112 33.0991C291.085 33.087 291.055 33.0779 291.021 33.0749C290.988 33.0719 290.958 33.0688 290.93 33.0688H290.74V33.4627Z" fill="white"/>
</svg>
